<svg width="100%" height="100%" viewBox="0 0 183 112" fill="none" xmlns="http://www.w3.org/2000/svg">
<path fill-rule="evenodd" clip-rule="evenodd" d="M11.5 0C8.73858 0 6.5 2.23858 6.5 5V95C6.5 97.7614 8.73858 100 11.5 100H171.5C174.261 100 176.5 97.7614 176.5 95V5C176.5 2.23858 174.261 0 171.5 0H11.5ZM16.5 5C13.7386 5 11.5 7.23858 11.5 10V90C11.5 92.7614 13.7386 95 16.5 95H166.5C169.261 95 171.5 92.7614 171.5 90V10C171.5 7.23858 169.261 5 166.5 5H16.5Z" fill="#CACACA"/>
<path d="M175 104H8L2 111H8H175H181L175 104Z" fill="#CACACA" stroke="#CACACA"/>
</svg>
